<?xml version="1.0"?>
<svg width="80" height="64" xmlns="http://www.w3.org/2000/svg">
 <g>
  <g id="Layer1">
   <g id="svg_2">
    <desc transform="translate(0,-1) translate(0,1) translate(1,0) translate(8,-2) "/>
    <path d="m20.215,13.2222l-17.11899,39.3262l6.783999,0l3.604001,-8.427193l13.462009,0l3.60397,8.427193l6.73102,0l-17.06601,-39.3262m-4.34601,25.386992l4.34601,-10.228992l4.34601,10.228992l-8.69202,0" fill="#b4b4b4" fill-rule="nonzero" id="svg_4"/>
   </g>
   <g id="svg_5">
    <desc transform="translate(0,-1) translate(0,1) translate(1,0) translate(8,-2) "/>
    <path d="m66.303986,38.343601c2.120033,-0.742001 3.604004,-1.961002 4.558014,-3.021c2.066986,-2.278992 3.179993,-5.459002 3.179993,-9.062992c0,-3.657009 -1.113007,-6.837009 -3.179993,-9.116009c-1.589996,-1.802 -4.610992,-3.922001 -9.804989,-3.922001l-6.466,0l-5.194,0l0,39.32579l6.14801,0l0,-13.302799l4.504971,0l9.911007,13.302799l6.942993,0l-10.600006,-14.2038m-10.758976,-4.610989l0,-14.946001l5.51199,0c2.54401,0 4.451996,0.688999 5.67099,2.066999c1.484016,1.59 1.748993,3.81599 1.748993,5.40601c0,1.536991 -0.264977,3.763 -1.748993,5.353001c-1.218994,1.377991 -3.12698,2.119999 -5.67099,2.119999l-5.51199,0" fill="#b4b4b4" fill-rule="nonzero" id="svg_7"/>
   </g>
   <g id="svg_8">
    <desc transform="translate(0,-1) translate(0,1) translate(1,0) translate(8,-2) "/>
    <path d="m20.33301,13.23361l39.652979,0l0,39.544802l-39.652979,0l0,-39.544802z" fill="#b30d00" fill-rule="evenodd" id="svg_10"/>
   </g>
   <g id="svg_11">
    <desc transform="translate(0,-1) translate(0,1) translate(1,0) translate(8,-2) "/>
    <path d="m38.79599,26.468201c0,0 1.338013,-1.246201 1.338013,-1.246201c0,0 0.991997,3.773701 0.919979,7.600689c-0.073002,3.8255 -1.258972,7.895721 -1.258972,7.895721c0,0 -1.181,-1.221012 -1.181,-1.221012c0,0 0.866001,-3.422089 0.866001,-6.650387c0,-3.240721 -0.684021,-6.378811 -0.684021,-6.378811z" fill="#ffffff" fill-rule="evenodd" id="svg_13"/>
   </g>
   <g id="svg_14">
    <desc transform="translate(0,-1) translate(0,1) translate(1,0) translate(8,-2) "/>
    <path d="m41.338009,24.099911c0,0 1.161991,-1.07481 1.161991,-1.07481c0,0 1.654999,2.96991 1.653019,9.749187c-0.00201,5.942993 -1.961029,10.46722 -1.961029,10.46722c0,0 -1.10397,-1.15781 -1.10397,-1.15781c0,0 1.587978,-4.569607 1.587978,-9.527309c0,-5.424299 -1.337978,-8.456478 -1.337978,-8.456478l-0.000011,0z" fill="#ffffff" fill-rule="evenodd" id="svg_16"/>
   </g>
   <g id="svg_17">
    <desc transform="translate(0,-1) translate(0,1) translate(1,0) translate(8,-2) "/>
    <path d="m48.437012,17.515499c0,0 1.26099,-1.1721 1.26099,-1.1721c0,0 4.059998,5.641401 4.059998,16.329391c0,11.870209 -4.988979,17.430908 -4.988979,17.430908c0,0 -1.00803,-1.047489 -1.00803,-1.047489c0,0 4.52103,-6.215611 4.52103,-16.601318c0,-8.90509 -3.845001,-14.939392 -3.845001,-14.939392l-0.000008,0z" fill="#ffffff" fill-rule="evenodd" id="svg_19"/>
   </g>
   <g id="svg_20">
    <desc transform="translate(0,-1) translate(0,1) translate(1,0) translate(8,-2) "/>
    <path d="m43.465,22.1313c0,0 1.310001,-1.227289 1.310001,-1.227289c0,0 2.45599,4.317989 2.45599,11.5634c0,7.23111 -2.946991,12.96759 -2.946991,12.96759c0,0 -1.123989,-1.1926 -1.123989,-1.1926c0,0 2.449978,-6.117981 2.449978,-11.750702c0,-6.428299 -2.144989,-10.360399 -2.144989,-10.360399z" fill="#ffffff" fill-rule="evenodd" id="svg_22"/>
   </g>
   <g id="svg_23">
    <desc transform="translate(0,-1) translate(0,1) translate(1,0) translate(8,-2) "/>
    <path d="m45.93399,19.8342c0,0 1.297001,-1.200899 1.297001,-1.200899c0,0 3.297028,5.3741 3.297028,13.7272c0,10.508301 -3.893009,15.517181 -3.893009,15.517181c0,0 -1.153019,-1.215481 -1.153019,-1.215481c0,0 3.276001,-5.610992 3.320007,-14.285492c0.036011,-7.154598 -2.868008,-12.542509 -2.868008,-12.542509z" fill="#ffffff" fill-rule="evenodd" id="svg_25"/>
   </g>
   <g id="svg_26">
    <desc transform="translate(0,-1) translate(0,1) translate(1,0) translate(8,-2) "/>
    <path d="m26.561001,30.36401c0.41,-8.172211 2.873989,-14.45541 5.83099,-14.45541c3.285,0 6.200989,5.913601 5.914001,16.7962c-0.205994,9.23999 -2.629002,16.755192 -5.914001,16.755192c-2.915991,0 -5.338011,-6.03677 -5.83099,-13.9216l0.943998,-0.040993l0.287991,1.765812l6.65201,-2.05331l-0.041019,-4.640499l-6.610991,-2.17659l-0.20599,1.97121l-1.025999,0m9.403988,-1.273012l0.821011,-0.739199c0,0 0.287991,2.505001 0.287991,4.4762c0,2.423 -0.657009,4.3941 -0.657009,4.3941l-0.656982,-0.69812c0,0 0.368992,-1.806881 0.368992,-3.69598c0,-1.68372 -0.164001,-3.737001 -0.164001,-3.737001" fill="#ffffff" fill-rule="evenodd" id="svg_28"/>
   </g>
  </g>
 </g>
</svg>
